<svg width="420" height="320" viewBox="0 0 420 320" fill="none" xmlns="http://www.w3.org/2000/svg">
  <defs>
    <linearGradient id="ai-blue" x1="0" y1="0" x2="420" y2="320" gradientUnits="userSpaceOnUse">
      <stop stop-color="#00c6ff"/>
      <stop offset="1" stop-color="#0072ff"/>
    </linearGradient>
    <radialGradient id="ai-glow" cx="50%" cy="50%" r="60%">
      <stop offset="0%" stop-color="#00c6ff55"/>
      <stop offset="100%" stop-color="transparent"/>
    </radialGradient>
  </defs>
  <ellipse cx="210" cy="160" rx="180" ry="110" fill="url(#ai-glow)"/>
  <rect x="110" y="80" width="200" height="160" rx="32" fill="#232a34" stroke="url(#ai-blue)" stroke-width="4"/>
  <circle cx="210" cy="160" r="60" fill="url(#ai-blue)" fill-opacity="0.15"/>
  <path d="M210 100v120M150 160h120" stroke="url(#ai-blue)" stroke-width="3" stroke-linecap="round"/>
  <circle cx="210" cy="160" r="18" fill="#fff" stroke="url(#ai-blue)" stroke-width="3"/>
  <circle cx="210" cy="160" r="7" fill="url(#ai-blue)"/>
  <rect x="170" y="120" width="20" height="8" rx="4" fill="#00c6ff" fill-opacity="0.7"/>
  <rect x="230" y="192" width="20" height="8" rx="4" fill="#00c6ff" fill-opacity="0.7"/>
  <rect x="170" y="192" width="20" height="8" rx="4" fill="#00c6ff" fill-opacity="0.4"/>
  <rect x="230" y="120" width="20" height="8" rx="4" fill="#00c6ff" fill-opacity="0.4"/>
  <rect x="200" y="80" width="20" height="8" rx="4" fill="#00c6ff" fill-opacity="0.2"/>
  <rect x="200" y="232" width="20" height="8" rx="4" fill="#00c6ff" fill-opacity="0.2"/>
</svg> 